<?xml version="1.0" ?><!DOCTYPE svg  PUBLIC '-//W3C//DTD SVG 1.1//EN'  'http://www.w3.org/Graphics/SVG/1.1/DTD/svg11.dtd'><svg enable-background="new 0 0 512 512" height="512px" id="Layer_3" version="1.1" viewBox="0 0 512 512" width="512px" xml:space="preserve" xmlns="http://www.w3.org/2000/svg" xmlns:xlink="http://www.w3.org/1999/xlink"><path d="M326.53,19.674" fill="none" stroke="#000000" stroke-width="10"/><path d="M488.872,50.616H265.944c-4.714,5.891-9.544,12.569-14.332,20.094l-25.787,57.734l-15.694,69.232  c-3.452,10.164-5.371,48.612-5.371,57.062l69.408,5.611L263.79,364.462c44.483-0.98,88.829-10.14,130.731-27.496  c1.776,4.289,3.553,8.577,5.329,12.867c-44.044,18.244-90.69,27.753-137.45,28.572l-0.707,7.089c0,6.836-0.745,27.945-1.633,28.225  l2.875,16.7c0.812,6.953,1.881,13.686,3.248,20.094h222.688c9.394,0,17.08-7.687,17.08-17.08V67.696  C505.952,58.302,498.266,50.616,488.872,50.616z M415.765,203.261h-19.724v-71.166h19.724V203.261z M260.061,413.719l-0.645-3.744  C259.634,412.693,259.851,413.784,260.061,413.719z"/><rect height="71.166" width="19.723" x="88.103" y="132.095"/><path d="M6.048,67.696v365.736c0,9.394,7.686,17.08,17.08,17.08h243.055c-1.367-6.408-2.437-13.141-3.248-20.094H43.419  c-8.575,0-15.591-6.913-15.591-15.363V86.073c0-8.45,7.016-15.363,15.591-15.363h208.193c4.788-7.524,9.618-14.203,14.332-20.094  H23.128C13.734,50.616,6.048,58.302,6.048,67.696z"/><path d="M326.53,19.674" fill="none" stroke="#000000" stroke-width="10"/><path d="M304.467,7.768c-0.59,0.318-27.148,14.807-53.57,53.655c-26.432,38.832-52.574,101.992-52.555,198.927v5.693h75.828v-5.693  l-5.578-1.135c-0.018,0.089-3.382,16.631-6.746,41.219c-3.364,24.591-6.735,57.216-6.737,89.57  c0.004,21.944,1.542,43.761,5.786,62.992c2.126,9.616,4.932,18.594,8.623,26.63c3.694,8.031,8.284,15.142,14.035,20.895l8.051-8.051  c-4.563-4.562-8.479-10.502-11.74-17.6c-4.896-10.638-8.285-23.836-10.395-38.382c-2.117-14.547-2.976-30.434-2.975-46.484  c-0.002-31.57,3.312-63.773,6.632-88.027c1.66-12.129,3.32-22.274,4.563-29.377c0.622-3.551,1.139-6.34,1.499-8.237  c0.181-0.948,0.321-1.674,0.417-2.158c0.048-0.243,0.085-0.426,0.109-0.546c0.024-0.121,0.034-0.174,0.034-0.175l1.389-6.827  h-77.102v5.693h5.693c0.019-94.903,25.446-155.528,50.584-192.523c12.577-18.494,25.111-31.077,34.434-39.006  c4.661-3.964,8.519-6.763,11.176-8.551c1.327-0.894,2.354-1.536,3.031-1.943c0.338-0.204,0.589-0.349,0.746-0.438l0.163-0.092  l0.027-0.016l0,0l-1.36-2.5l1.357,2.502l0.003-0.002l-1.36-2.5l1.357,2.502v0l-2.601-4.797l2.594,4.801l0.007-0.004l-2.601-4.797  l2.594,4.801L304.467,7.768z"/><path d="M131.093,336.966c41.902,17.356,86.249,26.516,130.731,27.496l1.391,13.943c-46.761-0.819-93.406-10.328-137.451-28.572  C127.541,345.543,129.316,341.255,131.093,336.966z"/></svg>